<svg width="800" height="500" viewBox="0 0 800 500" fill="none" xmlns="http://www.w3.org/2000/svg">
  <!-- Background -->
  <rect width="800" height="500" fill="#f8fafc"/>
  
  <!-- Main container -->
  <rect x="50" y="50" width="700" height="400" rx="8" fill="#ffffff" stroke="#e2e8f0" stroke-width="1"/>
  
  <!-- Header toolbar -->
  <rect x="50" y="50" width="700" height="60" rx="8" fill="#f1f5f9"/>
  <rect x="50" y="110" width="700" height="1" fill="#e2e8f0"/>
  
  <!-- Toolbar buttons -->
  <circle cx="80" cy="80" r="8" fill="#64748b"/>
  <circle cx="110" cy="80" r="8" fill="#64748b"/>
  <circle cx="140" cy="80" r="8" fill="#64748b"/>
  <circle cx="170" cy="80" r="8" fill="#64748b"/>
  <circle cx="200" cy="80" r="8" fill="#64748b"/>
  
  <!-- Editor content area -->
  <rect x="70" y="130" width="660" height="300" fill="#ffffff"/>
  
  <!-- Content lines -->
  <rect x="90" y="150" width="400" height="4" rx="2" fill="#1e293b"/>
  <rect x="90" y="170" width="620" height="3" rx="1.5" fill="#64748b"/>
  <rect x="90" y="190" width="580" height="3" rx="1.5" fill="#64748b"/>
  <rect x="90" y="210" width="540" height="3" rx="1.5" fill="#64748b"/>
  
  <!-- Bullet points -->
  <circle cx="95" cy="240" r="3" fill="#3b82f6"/>
  <rect x="110" y="237" width="500" height="3" rx="1.5" fill="#64748b"/>
  <circle cx="95" cy="260" r="3" fill="#3b82f6"/>
  <rect x="110" y="257" width="450" height="3" rx="1.5" fill="#64748b"/>
  <circle cx="95" cy="280" r="3" fill="#3b82f6"/>
  <rect x="110" y="277" width="520" height="3" rx="1.5" fill="#64748b"/>
  
  <!-- More content -->
  <rect x="90" y="310" width="400" height="3" rx="1.5" fill="#64748b"/>
  <rect x="90" y="330" width="480" height="3" rx="1.5" fill="#64748b"/>
  <rect x="90" y="350" width="350" height="3" rx="1.5" fill="#64748b"/>
  
  <!-- Cursor -->
  <rect x="440" y="350" width="2" height="18" fill="#3b82f6"/>
  
  <!-- Brand text -->
  <text x="400" y="480" font-family="Arial, sans-serif" font-size="16" font-weight="bold" text-anchor="middle" fill="#1e293b">
    📝 Akhlaq Digital Editor
  </text>
</svg>
